<svg width="275.836" height="275.836" xmlns="http://www.w3.org/2000/svg" xml:space="preserve" version="1.1" fill="#000000">

 <g>
  <title>Layer 1</title>
  <g id="svg_1">
   <path fill="#ccccc1" id="svg_2" d="m191.344,20.922l-95.155,95.155c-0.756,0.756 -1.297,1.699 -1.565,2.734l-8.167,31.454c-0.534,2.059 0.061,4.246 1.565,5.751c1.14,1.139 2.671,1.757 4.242,1.757c0.503,0 1.009,-0.063 1.508,-0.192l31.454,-8.168c1.035,-0.269 1.979,-0.81 2.734,-1.565l95.153,-95.153c0.002,-0.002 0.004,-0.003 0.005,-0.004s0.003,-0.004 0.004,-0.005l19.156,-19.156c2.344,-2.343 2.344,-6.142 0.001,-8.484l-23.285,-23.288c-1.126,-1.126 -2.651,-1.758 -4.243,-1.758c-1.591,0 -3.117,0.632 -4.242,1.758l-19.155,19.155c-0.002,0.002 -0.004,0.003 -0.005,0.004s-0.003,0.004 -0.005,0.005zm-70.713,117.286l-19.993,5.192l5.191,-19.993l89.762,-89.762l14.801,14.802l-89.761,89.761zm94.12,-123.723l14.801,14.802l-10.675,10.675l-14.801,-14.802l10.675,-10.675z"/>
   <path fill="#ccccc1" id="svg_3" d="m238.037,65.022c-3.313,0 -6,2.687 -6,6l0,192.813l-188.238,0l0,-229.418l111.063,0c3.313,0 6,-2.687 6,-6s-2.687,-6 -6,-6l-117.063,0c-3.313,0 -6,2.687 -6,6l0,241.419c0,3.313 2.687,6 6,6l200.238,0c3.313,0 6,-2.687 6,-6l0,-198.814c0,-3.313 -2.686,-6 -6,-6z"/>
  </g>
 </g>
</svg>