<svg width="512" height="512" xmlns="http://www.w3.org/2000/svg" xml:space="preserve" version="1.1">

 <g>
  <title>Layer 1</title>
  <g id="svg_1">
   <path id="svg_2" fill="#ccccc1" d="m503.654,101.298l-43.289,0l0,-43.298c0,-4.61 -3.727,-8.338 -8.329,-8.338l-16.833,0c-4.602,0 -8.347,3.728 -8.347,8.338l0,43.298l-43.289,0c-4.602,0 -8.329,3.727 -8.329,8.329l0,16.833c0,4.602 3.727,8.346 8.329,8.346l43.289,0l0,43.29c0,4.601 3.745,8.337 8.347,8.337l16.833,0c4.602,0 8.329,-3.736 8.329,-8.337l0,-43.29l43.289,0c4.619,0 8.346,-3.744 8.346,-8.346l0,-16.833c0,-4.601 -3.727,-8.329 -8.346,-8.329z" class="st0"/>
   <path id="svg_3" fill="#ccccc1" d="m500.836,239.74l-0.21,-0.428l-0.28,-0.394c-8.556,-12.616 -22.817,-20.367 -38.216,-20.367l-79.91,0l-12.633,-36.115l-0.385,0.096c-8.836,-19.204 -27.839,-32.178 -49.519,-32.178l-174.697,0c-1.994,-0.026 -4.041,-1.129 -5.231,-3.666l0.017,0.035c-8.592,-18.889 -27.314,-31.329 -48.224,-31.329l-45.074,0c-0.035,0 -0.035,-0.009 -0.052,-0.009c-15.118,0.009 -29.134,7.489 -37.743,19.702l-0.595,0.866l-0.123,0.376c-5.213,7.891 -7.961,17.026 -7.961,26.282c0,4.768 0.736,9.571 2.188,14.243l-0.018,0l0.018,0.035l0.017,0.061l0.018,0.062l0,0.017l76.115,247.645l0,0.035l0.332,1.033c6.912,21.801 27.121,36.587 49.973,36.587l272.719,0.009c19.72,-0.009 37.48,-11.102 46.404,-28.268l0.437,0.141l57.516,-152.178l0.07,-0.201l0.017,-0.062l0.018,-0.035c1.838,-5.196 2.73,-10.62 2.73,-15.992c0,-9.098 -2.625,-18.136 -7.717,-25.984l0,-0.019l-0.001,0zm-28.206,30.271l-55.03,145.58l-0.035,0.106c-2.432,6.859 -8.941,11.443 -16.203,11.443l-272.719,-0.017c-7.506,0.017 -14.156,-4.848 -16.412,-12.004l-76.448,-248.737l0.017,0.043c-0.402,-1.251 -0.595,-2.537 -0.595,-3.814c0,-2.608 0.805,-5.162 2.258,-7.244l-0.018,0.017c2.223,-3.114 5.547,-4.786 8.994,-4.786l45.11,0c6.754,0 13.106,4.007 16.185,10.735c6.649,14.602 21.12,24.217 37.253,24.217l174.697,0c8.294,0 15.906,5.486 18.653,14.156l0.07,0.21l8.994,25.678l-139.668,0c-20.279,0 -38.18,13.019 -44.951,32.134l-35.608,102.904l26.596,9.204l35.573,-102.781l-0.035,0.122c2.974,-8.276 10.376,-13.42 18.425,-13.42l254.399,0c3.482,0 6.912,1.741 9.1,4.97c1.364,2.029 2.134,4.496 2.117,7.016c-0.001,1.443 -0.246,2.886 -0.719,4.268z" class="st0"/>
  </g>
 </g>
</svg>