<svg version="1.1" id="Layer_1" xmlns="http://www.w3.org/2000/svg" xmlns:xlink="http://www.w3.org/1999/xlink" x="0px" y="0px"
	 width="100%" viewBox="0 0 1024 1024" enable-background="new 0 0 1024 1024" xml:space="preserve">
<path fill="#F9AD81" opacity="1.000000" stroke="none" 
	d="
M582.000000,1025.000000 
	C388.000000,1025.000000 194.500000,1025.000000 1.000000,1025.000000 
	C1.000000,683.666687 1.000000,342.333344 1.000000,1.000000 
	C342.333344,1.000000 683.666687,1.000000 1025.000000,1.000000 
	C1025.000000,342.333344 1025.000000,683.666687 1025.000000,1025.000000 
	C877.500000,1025.000000 730.000000,1025.000000 582.000000,1025.000000 
M283.500000,1010.000000 
	C526.252502,1010.000000 769.005066,1010.000000 1011.614624,1010.000000 
	C1011.614624,677.596313 1011.614624,345.875366 1011.614624,14.252644 
	C679.626160,14.252644 348.023132,14.252644 16.296703,14.252644 
	C16.296703,346.226257 16.296703,677.947083 16.296703,1010.000000 
	C105.228722,1010.000000 193.864365,1010.000000 283.500000,1010.000000 
z"/>
<path fill="#1A1C20" opacity="1.000000" stroke="none" 
	d="
M283.000000,1010.000000 
	C193.864365,1010.000000 105.228722,1010.000000 16.296703,1010.000000 
	C16.296703,677.947083 16.296703,346.226257 16.296703,14.252644 
	C348.023132,14.252644 679.626160,14.252644 1011.614624,14.252644 
	C1011.614624,345.875366 1011.614624,677.596313 1011.614624,1010.000000 
	C769.005066,1010.000000 526.252502,1010.000000 283.000000,1010.000000 
M95.618027,781.996155 
	C93.356163,781.996155 91.094299,781.996155 88.789406,781.996155 
	C88.789406,831.000244 88.789406,879.370178 88.789406,927.743286 
	C103.416611,927.743286 117.675232,927.743286 132.498657,927.743286 
	C132.498657,910.763733 132.498657,894.036560 132.498657,875.399780 
	C137.218155,877.848206 141.405701,878.993225 144.065262,881.661316 
	C147.369186,884.975769 150.100174,889.272217 151.854706,893.636536 
	C155.754242,903.336548 159.037094,913.295776 162.260712,923.249939 
	C163.395233,926.753418 164.897491,928.284851 168.839111,928.109680 
	C176.818802,927.755127 184.825302,928.003784 192.820740,928.003784 
	C199.570328,928.003784 206.319916,928.003845 213.734406,928.003845 
	C208.065231,913.538635 202.784195,899.737854 197.248016,886.040161 
	C192.747955,874.905945 185.372696,866.475891 173.242157,862.582703 
	C177.850189,860.580688 182.251343,859.045715 186.290451,856.845947 
	C200.961960,848.855835 207.391144,836.124817 206.610809,819.697937 
	C205.818268,803.014893 197.315033,791.512695 181.348083,787.054993 
	C171.080536,784.188477 160.216721,782.674011 149.547699,782.206116 
	C131.924988,781.433289 114.243706,781.996155 95.618027,781.996155 
M460.137909,896.589966 
	C464.945953,877.660095 459.320557,861.783081 443.321350,850.726196 
	C437.888794,846.971863 431.844025,844.060547 425.929779,841.057922 
	C419.869446,837.981018 413.541473,835.429993 407.492676,832.332397 
	C403.308563,830.189697 401.004700,826.639709 401.839355,821.674744 
	C402.623077,817.012573 406.223328,814.487793 410.154022,814.215576 
	C417.346985,813.717407 424.786102,813.526855 431.818298,814.838867 
	C439.323151,816.239014 446.475952,819.525940 454.022156,822.070007 
	C454.022156,810.907410 454.113007,799.753906 453.895508,788.606384 
	C453.871094,787.355774 452.314941,785.353333 451.107758,785.023926 
	C430.766357,779.473633 410.177277,777.511597 389.566498,783.105347 
	C363.111450,790.285339 349.124176,813.539429 356.023102,838.370667 
	C359.870209,852.217529 369.715271,860.901062 382.185760,866.871582 
	C389.061432,870.163513 396.312866,872.668030 403.205536,875.927979 
	C410.697449,879.471313 413.503418,884.402832 412.091461,890.304382 
	C410.904816,895.264282 406.018616,898.019470 397.919556,897.972595 
	C383.990051,897.891907 371.729584,892.641418 360.118958,885.472656 
	C359.099396,884.843079 357.995422,884.350281 356.422607,883.528381 
	C356.422607,895.769287 356.612457,907.255310 356.315369,918.728699 
	C356.216888,922.531555 357.776672,923.921631 361.008392,925.011902 
	C381.019470,931.762939 401.430176,933.006897 421.986694,928.690186 
	C439.882324,924.932190 454.097870,916.058472 460.137909,896.589966 
M236.523239,823.994446 
	C232.777725,823.994446 229.032196,823.994446 225.297272,823.994446 
	C225.297272,847.444702 224.978073,870.094849 225.435013,892.729248 
	C225.655869,903.669312 228.162262,914.339844 236.478073,922.439575 
	C249.520935,935.143677 272.868500,933.846008 285.939911,919.831482 
	C287.895966,917.734314 289.737244,915.530151 292.512878,912.372986 
	C292.512878,918.380310 292.512878,922.988892 292.512878,927.653076 
	C307.196136,927.653076 321.410156,927.653076 335.518372,927.653076 
	C335.518372,892.925781 335.518372,858.552307 335.518372,824.298340 
	C321.030212,824.298340 306.941864,824.298340 292.419434,824.298340 
	C292.419434,826.401428 292.419464,828.204956 292.419464,830.008484 
	C292.419434,847.335083 292.470642,864.662048 292.369781,881.988037 
	C292.352570,884.943970 292.053802,888.002502 291.239563,890.827637 
	C289.557343,896.664429 284.733002,899.583984 278.618988,898.971008 
	C273.367096,898.444458 269.840515,894.922852 269.024200,889.113464 
	C268.678131,886.650574 268.605743,884.133606 268.600800,881.640808 
	C268.566498,864.314331 268.582642,846.987610 268.582611,829.661011 
	C268.582611,827.876038 268.582611,826.091064 268.582611,823.994446 
	C257.810455,823.994446 247.662827,823.994446 236.523239,823.994446 
M495.503052,781.996033 
	C490.383057,781.996033 485.263062,781.996033 480.034790,781.996033 
	C480.034790,830.895874 480.034790,879.266968 480.034790,927.742310 
	C511.271362,927.742310 542.179932,927.742310 573.240356,927.742310 
	C573.240356,916.409546 573.240356,905.341125 573.240356,893.885071 
	C556.624146,893.885071 540.343933,893.885071 523.511047,893.885071 
	C523.511047,856.432129 523.511047,819.365601 523.511047,781.996033 
	C514.136475,781.996033 505.319061,781.996033 495.503052,781.996033 
z"/>
<path fill="#F7AC80" opacity="1.000000" stroke="none" 
	d="
M96.102570,781.996155 
	C114.243706,781.996155 131.924988,781.433289 149.547699,782.206116 
	C160.216721,782.674011 171.080536,784.188477 181.348083,787.054993 
	C197.315033,791.512695 205.818268,803.014893 206.610809,819.697937 
	C207.391144,836.124817 200.961960,848.855835 186.290451,856.845947 
	C182.251343,859.045715 177.850189,860.580688 173.242157,862.582703 
	C185.372696,866.475891 192.747955,874.905945 197.248016,886.040161 
	C202.784195,899.737854 208.065231,913.538635 213.734406,928.003845 
	C206.319916,928.003845 199.570328,928.003784 192.820740,928.003784 
	C184.825302,928.003784 176.818802,927.755127 168.839111,928.109680 
	C164.897491,928.284851 163.395233,926.753418 162.260712,923.249939 
	C159.037094,913.295776 155.754242,903.336548 151.854706,893.636536 
	C150.100174,889.272217 147.369186,884.975769 144.065262,881.661316 
	C141.405701,878.993225 137.218155,877.848206 132.498657,875.399780 
	C132.498657,894.036560 132.498657,910.763733 132.498657,927.743286 
	C117.675232,927.743286 103.416611,927.743286 88.789406,927.743286 
	C88.789406,879.370178 88.789406,831.000244 88.789406,781.996155 
	C91.094299,781.996155 93.356163,781.996155 96.102570,781.996155 
M159.154236,822.704224 
	C155.646362,813.284424 146.693558,809.865906 132.316910,812.710083 
	C132.316910,818.068115 132.316925,823.522766 132.316925,828.977356 
	C132.316925,834.568909 132.316910,840.160522 132.316910,845.665771 
	C152.333313,847.379089 162.176804,839.074341 159.154236,822.704224 
z"/>
<path fill="#F7AC80" opacity="1.000000" stroke="none" 
	d="
M460.043762,896.984985 
	C454.097870,916.058472 439.882324,924.932190 421.986694,928.690186 
	C401.430176,933.006897 381.019470,931.762939 361.008392,925.011902 
	C357.776672,923.921631 356.216888,922.531555 356.315369,918.728699 
	C356.612457,907.255310 356.422607,895.769287 356.422607,883.528381 
	C357.995422,884.350281 359.099396,884.843079 360.118958,885.472656 
	C371.729584,892.641418 383.990051,897.891907 397.919556,897.972595 
	C406.018616,898.019470 410.904816,895.264282 412.091461,890.304382 
	C413.503418,884.402832 410.697449,879.471313 403.205536,875.927979 
	C396.312866,872.668030 389.061432,870.163513 382.185760,866.871582 
	C369.715271,860.901062 359.870209,852.217529 356.023102,838.370667 
	C349.124176,813.539429 363.111450,790.285339 389.566498,783.105347 
	C410.177277,777.511597 430.766357,779.473633 451.107758,785.023926 
	C452.314941,785.353333 453.871094,787.355774 453.895508,788.606384 
	C454.113007,799.753906 454.022156,810.907410 454.022156,822.070007 
	C446.475952,819.525940 439.323151,816.239014 431.818298,814.838867 
	C424.786102,813.526855 417.346985,813.717407 410.154022,814.215576 
	C406.223328,814.487793 402.623077,817.012573 401.839355,821.674744 
	C401.004700,826.639709 403.308563,830.189697 407.492676,832.332397 
	C413.541473,835.429993 419.869446,837.981018 425.929779,841.057922 
	C431.844025,844.060547 437.888794,846.971863 443.321350,850.726196 
	C459.320557,861.783081 464.945953,877.660095 460.043762,896.984985 
z"/>
<path fill="#F7AB80" opacity="1.000000" stroke="none" 
	d="
M237.019226,823.994446 
	C247.662827,823.994446 257.810455,823.994446 268.582611,823.994446 
	C268.582611,826.091064 268.582611,827.876038 268.582611,829.661011 
	C268.582642,846.987610 268.566498,864.314331 268.600800,881.640808 
	C268.605743,884.133606 268.678131,886.650574 269.024200,889.113464 
	C269.840515,894.922852 273.367096,898.444458 278.618988,898.971008 
	C284.733002,899.583984 289.557343,896.664429 291.239563,890.827637 
	C292.053802,888.002502 292.352570,884.943970 292.369781,881.988037 
	C292.470642,864.662048 292.419434,847.335083 292.419464,830.008484 
	C292.419464,828.204956 292.419434,826.401428 292.419434,824.298340 
	C306.941864,824.298340 321.030212,824.298340 335.518372,824.298340 
	C335.518372,858.552307 335.518372,892.925781 335.518372,927.653076 
	C321.410156,927.653076 307.196136,927.653076 292.512878,927.653076 
	C292.512878,922.988892 292.512878,918.380310 292.512878,912.372986 
	C289.737244,915.530151 287.895966,917.734314 285.939911,919.831482 
	C272.868500,933.846008 249.520935,935.143677 236.478073,922.439575 
	C228.162262,914.339844 225.655869,903.669312 225.435013,892.729248 
	C224.978073,870.094849 225.297272,847.444702 225.297272,823.994446 
	C229.032196,823.994446 232.777725,823.994446 237.019226,823.994446 
z"/>
<path fill="#F8AB7F" opacity="1.000000" stroke="none" 
	d="
M496.002350,781.996033 
	C505.319061,781.996033 514.136475,781.996033 523.511047,781.996033 
	C523.511047,819.365601 523.511047,856.432129 523.511047,893.885071 
	C540.343933,893.885071 556.624146,893.885071 573.240356,893.885071 
	C573.240356,905.341125 573.240356,916.409546 573.240356,927.742310 
	C542.179932,927.742310 511.271362,927.742310 480.034790,927.742310 
	C480.034790,879.266968 480.034790,830.895874 480.034790,781.996033 
	C485.263062,781.996033 490.383057,781.996033 496.002350,781.996033 
z"/>
<path fill="#1A1C20" opacity="1.000000" stroke="none" 
	d="
M159.279022,823.090454 
	C162.176804,839.074341 152.333313,847.379089 132.316910,845.665771 
	C132.316910,840.160522 132.316925,834.568909 132.316925,828.977356 
	C132.316925,823.522766 132.316910,818.068115 132.316910,812.710083 
	C146.693558,809.865906 155.646362,813.284424 159.279022,823.090454 
z"/>
</svg>